<?xml version="1.0" encoding="UTF-8" standalone="no" ?>
<!DOCTYPE svg PUBLIC "-//W3C//DTD SVG 1.1//EN" "http://www.w3.org/Graphics/SVG/1.1/DTD/svg11.dtd">
<svg xmlns="http://www.w3.org/2000/svg" xmlns:xlink="http://www.w3.org/1999/xlink" version="1.1" width="1080" height="1080" viewBox="0 0 1080 1080" xml:space="preserve">
<desc>Created with Fabric.js 4.2.0</desc>
<defs>
</defs>
<g transform="matrix(1 0 0 1 540 540)" id="10fb2f87-dbbb-478e-abb4-3b1c3c084204"  >
<rect style="stroke: none; stroke-width: 1; stroke-dasharray: none; stroke-linecap: butt; stroke-dashoffset: 0; stroke-linejoin: miter; stroke-miterlimit: 4; fill: rgb(255,255,255); fill-rule: nonzero; opacity: 1;" vector-effect="non-scaling-stroke"  x="-540" y="-540" rx="0" ry="0" width="1080" height="1080" />
</g>
<g transform="matrix(Infinity NaN NaN Infinity 0 0)" id="3fb8d1bc-5b1f-448e-b56d-86cb597e6f16"  >
</g>
<g transform="matrix(66 0 0 66 537.23 542.77)" id="c8a9a860-980a-4ddb-ba83-50a04c8d9b38"  >
<path style="stroke: rgb(0,0,0); stroke-width: 0; stroke-dasharray: none; stroke-linecap: butt; stroke-dashoffset: 0; stroke-linejoin: miter; stroke-miterlimit: 4; fill: rgb(0,0,0); fill-rule: nonzero; opacity: 1;" vector-effect="non-scaling-stroke"  transform=" translate(-12, -12)" d="M 4 8 L 8 8 L 8 4 L 4 4 L 4 8 z M 10 20 L 14 20 L 14 16 L 10 16 L 10 20 z M 4 20 L 8 20 L 8 16 L 4 16 L 4 20 z M 4 14 L 8 14 L 8 10 L 4 10 L 4 14 z M 10 14 L 14 14 L 14 10 L 10 10 L 10 14 z M 16 4 L 16 8 L 20 8 L 20 4 L 16 4 z M 10 8 L 14 8 L 14 4 L 10 4 L 10 8 z M 16 14 L 20 14 L 20 10 L 16 10 L 16 14 z M 16 20 L 20 20 L 20 16 L 16 16 L 16 20 z" stroke-linecap="round" />
</g>
</svg>